<svg width="43" height="43" viewBox="0 0 43 43" fill="none" xmlns="http://www.w3.org/2000/svg">
<g clip-path="url(#clip0_16_65)">
<path d="M32.7878 17.2001H22.5753V20.9626C22.5753 23.6299 20.4051 25.8001 17.7378 25.8001C15.0704 25.8001 12.9003 23.6299 12.9003 20.9626V12.7926L8.53978 15.4129C7.24306 16.1855 6.45025 17.5897 6.45025 19.0947V22.2727L1.07525 25.3768C0.0472819 25.968 -0.308812 27.2849 0.289157 28.3129L5.66416 37.6251C6.25541 38.653 7.57228 39.0024 8.60025 38.4112L15.5474 34.4001H24.7253C27.097 34.4001 29.0253 32.4718 29.0253 30.1001H30.1003C31.2895 30.1001 32.2503 29.1393 32.2503 27.9501V23.6501H32.7878C33.6813 23.6501 34.4003 22.9312 34.4003 22.0376V18.8126C34.4003 17.919 33.6813 17.2001 32.7878 17.2001ZM42.7113 14.6872L37.3363 5.37506C36.7451 4.34709 35.4282 3.99772 34.4003 4.58897L27.4531 8.60006H20.5865C19.7803 8.60006 18.9942 8.8285 18.3088 9.25178L16.0581 10.656C15.4265 11.0457 15.0503 11.7377 15.0503 12.4768V20.9626C15.0503 22.4474 16.2529 23.6501 17.7378 23.6501C19.2226 23.6501 20.4253 22.4474 20.4253 20.9626V15.0501H32.7878C34.8638 15.0501 36.5503 16.7365 36.5503 18.8126V20.7274L41.9253 17.6233C42.9532 17.0254 43.3026 15.7152 42.7113 14.6872Z" fill="white"/>
</g>
<defs>
<clipPath id="clip0_16_65">
<rect width="43" height="43" fill="white"/>
</clipPath>
</defs>
</svg>
