<svg width="43" height="43" viewBox="0 0 43 43" fill="none" xmlns="http://www.w3.org/2000/svg">
<g clip-path="url(#clip0_16_86)">
<path d="M43 20.3056C43 18.5415 42.0332 17.0179 40.6111 16.1907V4.77855C40.6111 4.12534 40.09 2.38892 38.2222 2.38892C37.6907 2.38892 37.1629 2.56659 36.7307 2.91298L30.3829 7.99161C27.1945 10.5403 23.1916 11.9445 19.1111 11.9445H4.77778C2.1388 11.9445 0 14.0833 0 16.7222V23.8889C0 26.5279 2.1388 28.6667 4.77778 28.6667H7.29358C7.18981 29.4491 7.13083 30.2449 7.13083 31.0556C7.13083 34.0245 7.82212 36.83 9.03896 39.3376C9.42641 40.1356 10.2722 40.6111 11.1591 40.6111H16.7043C18.649 40.6111 19.8166 38.3835 18.6378 36.8367C17.4135 35.2302 16.6856 33.2265 16.6856 31.0556C16.6856 30.2262 16.8066 29.4289 17.0149 28.6667H19.1111C23.1916 28.6667 27.1945 30.0709 30.3822 32.6196L36.7299 37.6982C37.1533 38.037 37.6792 38.2218 38.2215 38.2222C40.0818 38.2222 40.6104 36.5217 40.6104 35.8334V24.4212C42.0332 23.5933 43 22.0696 43 20.3056ZM35.8333 30.863L33.3661 28.8892C29.3348 25.6642 24.2711 23.8889 19.1111 23.8889V16.7222C24.2711 16.7222 29.3348 14.947 33.3661 11.722L35.8333 9.74819V30.863Z" fill="white"/>
</g>
<defs>
<clipPath id="clip0_16_86">
<rect width="43" height="43" fill="white"/>
</clipPath>
</defs>
</svg>
