<svg width="63" height="63" viewBox="0 0 63 63" fill="none" xmlns="http://www.w3.org/2000/svg">
<path d="M31.5 63C48.897 63 63 48.897 63 31.5C63 14.103 48.897 0 31.5 0C14.103 0 0 14.103 0 31.5C0 48.897 14.103 63 31.5 63Z" fill="#AD3838"/>
<path d="M31.5 0C30.1075 0 28.7362 0.0915469 27.3913 0.266643C42.8469 2.28006 54.7826 15.4957 54.7826 31.5C54.7826 47.5043 42.8468 60.7199 27.3912 62.7334C28.7362 62.9085 30.1075 63 31.5 63C48.897 63 63 48.8969 63 31.5C63 14.1031 48.897 0 31.5 0Z" fill="#AD3838"/>
<path d="M43.1698 11.2988H19.8302C15.126 11.2988 11.2989 15.126 11.2989 19.8302V43.1699C11.2989 47.8741 15.126 51.7013 19.8302 51.7013H43.17C47.8742 51.7013 51.7014 47.8741 51.7014 43.1699V19.8302C51.7011 15.126 47.874 11.2988 43.1698 11.2988ZM49.6467 43.1697C49.6467 46.7411 46.7412 49.6466 43.1698 49.6466H19.8302C16.2588 49.6466 13.3533 46.7411 13.3533 43.1697V19.8302C13.3533 16.2587 16.2588 13.3532 19.8302 13.3532H43.17C46.7415 13.3532 49.647 16.2587 49.647 19.8302V43.1697H49.6467V43.1697Z" fill="white"/>
<path d="M31.5 20.8857C25.6473 20.8857 20.8859 25.6472 20.8859 31.4999C20.8859 37.3526 25.6473 42.114 31.5 42.114C37.3527 42.114 42.1142 37.3526 42.1142 31.4999C42.1142 25.6472 37.3527 20.8857 31.5 20.8857ZM31.5 40.0596C26.7802 40.0596 22.9403 36.2196 22.9403 31.4999C22.9403 26.7802 26.7803 22.9401 31.5 22.9401C36.2197 22.9401 40.0598 26.7802 40.0598 31.4999C40.0598 36.2196 36.2198 40.0596 31.5 40.0596Z" fill="white"/>
<path d="M42.4565 21.9129C43.9693 21.9129 45.1956 20.6865 45.1956 19.1737C45.1956 17.6609 43.9693 16.4346 42.4565 16.4346C40.9437 16.4346 39.7173 17.6609 39.7173 19.1737C39.7173 20.6865 40.9437 21.9129 42.4565 21.9129Z" fill="white"/>
</svg>
