<svg width="43" height="43" viewBox="0 0 43 43" fill="none" xmlns="http://www.w3.org/2000/svg">
<path d="M0 19.3501V37.6251C0 38.219 0.481063 38.7001 1.075 38.7001H6.45V17.2001H2.15C0.962797 17.2001 0 18.1629 0 19.3501ZM24.1875 16.1251H22.575V13.4376C22.575 13.1406 22.3345 12.9001 22.0375 12.9001H20.9625C20.6655 12.9001 20.425 13.1406 20.425 13.4376V17.7376C20.425 18.0345 20.6655 18.2751 20.9625 18.2751H24.1875C24.4845 18.2751 24.725 18.0345 24.725 17.7376V16.6626C24.725 16.3656 24.4845 16.1251 24.1875 16.1251ZM33.4426 11.8277L22.6926 4.66085C22.3393 4.42558 21.9244 4.30005 21.5 4.30005C21.0756 4.30005 20.6607 4.42558 20.3074 4.66085L9.55742 11.8277C9.26297 12.024 9.02153 12.29 8.85452 12.602C8.6875 12.914 8.60008 13.2624 8.6 13.6163V38.7001H17.2V29.0251C17.2 28.4311 17.6811 27.9501 18.275 27.9501H24.725C25.3189 27.9501 25.8 28.4311 25.8 29.0251V38.7001H34.4V13.6169C34.4 12.898 34.0406 12.2262 33.4426 11.8277ZM21.5 21.5001C18.5317 21.5001 16.125 19.0934 16.125 16.1251C16.125 13.1567 18.5317 10.7501 21.5 10.7501C24.4683 10.7501 26.875 13.1567 26.875 16.1251C26.875 19.0934 24.4683 21.5001 21.5 21.5001ZM40.85 17.2001H36.55V38.7001H41.925C42.5189 38.7001 43 38.219 43 37.6251V19.3501C43 18.1629 42.0372 17.2001 40.85 17.2001Z" fill="white"/>
</svg>
