<svg width="72" height="72" viewBox="0 0 72 72" fill="none" xmlns="http://www.w3.org/2000/svg">
<path d="M60.48 20.5198C51.84 7.19976 34.2 3.23976 20.52 11.5198C7.19997 19.7998 2.87997 37.7998 11.52 51.1198L12.24 52.1998L9.35997 62.9998L20.16 60.1198L21.24 60.8398C25.92 63.3598 30.96 64.7998 36 64.7998C41.4 64.7998 46.8 63.3598 51.48 60.4798C64.8 51.8398 68.76 34.1998 60.48 20.5198ZM52.92 48.2398C51.48 50.3998 49.68 51.8398 47.16 52.1998C45.72 52.1998 43.92 52.9198 36.72 50.0398C30.6 47.1598 25.56 42.4798 21.96 37.0798C19.8 34.5598 18.72 31.3198 18.36 28.0798C18.36 25.1998 19.44 22.6798 21.24 20.8798C21.96 20.1598 22.68 19.7998 23.4 19.7998H25.2C25.92 19.7998 26.64 19.7998 27 21.2398C27.72 23.0398 29.52 27.3598 29.52 27.7198C29.88 28.0798 29.88 28.7998 29.52 29.1598C29.88 29.8798 29.52 30.5998 29.16 30.9598C28.8 31.3198 28.44 32.0398 28.08 32.3998C27.36 32.7598 27 33.4798 27.36 34.1998C28.8 36.3598 30.6 38.5198 32.4 40.3198C34.56 42.1198 36.72 43.5598 39.24 44.6398C39.96 44.9998 40.68 44.9998 41.04 44.2798C41.4 43.5598 43.2 41.7598 43.92 41.0398C44.64 40.3198 45 40.3198 45.72 40.6798L51.48 43.5598C52.2 43.9198 52.92 44.2798 53.28 44.6398C53.64 45.7198 53.64 47.1598 52.92 48.2398Z" fill="#AD3838"/>
</svg>
