<svg width="69" height="69" viewBox="0 0 69 69" fill="none" xmlns="http://www.w3.org/2000/svg">
<g clip-path="url(#clip0_25_81)">
<path d="M34.5001 69.0001C53.5539 69.0001 69.0001 53.5539 69.0001 34.5001C69.0001 15.4462 53.5539 0 34.5001 0C15.4462 0 0 15.4462 0 34.5001C0 53.5539 15.4462 69.0001 34.5001 69.0001Z" fill="#AD3838"/>
<path d="M58.8941 10.1011C72.3672 23.5754 72.3684 45.4204 58.8941 58.8947C45.421 72.3678 23.5748 72.3684 10.1005 58.8947L58.8941 10.1011Z" fill="#AD3838"/>
<path d="M68.3066 41.41L51.2314 24.3354L31.093 26.6284L18.9115 45.487L41.6735 68.2484C55.0562 65.4174 65.5773 54.8315 68.3066 41.41Z" fill="#AD3838"/>
<path d="M52.5541 27.8428C52.5541 24.9506 50.2111 22.6064 47.3205 22.6064H22.7663C19.8763 22.6064 17.5338 24.9512 17.5338 27.8428V41.8841C17.5338 44.7763 19.8768 47.1204 22.7663 47.1204H47.3201C50.2112 47.1204 52.5536 44.7757 52.5536 41.8841V27.8428H52.5541ZM31.5408 40.787V27.5988L41.5421 34.1931L31.5408 40.787Z" fill="white"/>
</g>
<defs>
<clipPath id="clip0_25_81">
<rect width="69" height="69" fill="white"/>
</clipPath>
</defs>
</svg>
